<svg width="1024" height="1024" viewBox="0 0 1024 1024" xmlns="http://www.w3.org/2000/svg" role="img" aria-labelledby="title">
  <title id="title">Agave icon</title>
  <defs>
    <linearGradient id="leafLight" x1="0%" y1="100%" x2="0%" y2="0%">
      <stop offset="0%" stop-color="#4F7F6A"/>
      <stop offset="100%" stop-color="#8FBFA5"/>
    </linearGradient>
    <linearGradient id="leafDark" x1="0%" y1="100%" x2="0%" y2="0%">
      <stop offset="0%" stop-color="#396252"/>
      <stop offset="100%" stop-color="#6BA58A"/>
    </linearGradient>
  </defs>
  <rect x="64" y="64" width="896" height="896" rx="200" ry="200" fill="#F7F8F9"/>
  <g transform="translate(512,560)">
    <path d="M0 0 C -20 -160 -40 -360 0 -460 C 40 -360 20 -160 0 0 Z" fill="url(#leafDark)"/>
    <path d="M0 10 C -80 -130 -140 -260 -160 -370 C -100 -280 -50 -150 0 10 Z" fill="url(#leafLight)"/>
    <path d="M0 10 C 80 -130 140 -260 160 -370 C 100 -280 50 -150 0 10 Z" fill="url(#leafLight)"/>
    <path d="M0 30 C -140 -60 -220 -150 -270 -230 C -180 -150 -90 -70 0 30 Z" fill="url(#leafLight)"/>
    <path d="M0 30 C 140 -60 220 -150 270 -230 C 180 -150 90 -70 0 30 Z" fill="url(#leafLight)"/>
    <ellipse cx="0" cy="80" rx="210" ry="60" fill="#4F7F6A"/>
  </g>
</svg>
